<?xml version="1.0" standalone="no"?><!DOCTYPE svg PUBLIC "-//W3C//DTD SVG 1.1//EN" "http://www.w3.org/Graphics/SVG/1.1/DTD/svg11.dtd"><svg t="1586315673360" class="icon" viewBox="0 0 1024 1024" version="1.1" xmlns="http://www.w3.org/2000/svg" p-id="1869" xmlns:xlink="http://www.w3.org/1999/xlink" width="200" height="200"><defs><style type="text/css"></style></defs><path d="M113 489.5C113 268.9 291.6 90 512 90s399 178.9 399 399.5S732.4 889 512 889 113 710.1 113 489.5z" fill="#333F50" p-id="1870"></path><path d="M194.2 607.6l0.5 1.8 0.2 1.8-0.1 1.8-0.4 1.7-0.6 1.6-0.9 1.5-1.1 1.4-1.3 1.2-1.5 1-1.7 0.8-1.8 0.5-1.8 0.2-1.8-0.1-1.7-0.4-1.7-0.6-1.5-0.9-1.4-1.1-1.2-1.3-1-1.5-0.8-1.7-1-2.9-1-2.9-0.9-2.9-0.9-2.9-0.9-2.9-0.9-2.9-0.9-2.9-0.8-2.9-0.8-2.9-0.8-2.9-0.8-2.9-0.7-2.9-0.7-2.9-0.7-2.9-0.7-2.9-0.6-2.9-0.6-2.9-0.6-2.9-0.6-2.9-0.5-2.9-0.5-2.9-0.5-2.9-0.5-2.9-0.4-3-0.4-3-0.4-3-0.4-3-0.4-3-0.3-3-0.3-3-0.3-3-0.3-3-0.2-3-0.2-3-0.2-3-0.2-3-0.1-3-0.1-3-0.1-3-0.1-3v-15l0.1-3 0.1-3 0.1-3 0.1-3 0.2-3 0.2-3 0.2-3 0.2-3 0.3-3 0.3-3 0.3-3 0.3-3 0.4-2.9 0.4-2.9 0.4-2.9 0.4-2.9 0.4-2.9 0.5-2.9 0.5-2.9 0.5-2.9 0.5-2.9 0.6-2.9 0.6-2.9 0.6-2.9 0.6-2.9 0.7-2.9 0.7-2.9 0.7-2.9 0.7-2.9 0.7-2.9 0.8-2.9 0.8-2.9 0.8-2.9 0.8-2.9 0.9-2.9 0.9-2.9 0.9-2.8 0.9-2.8 1-2.8 1-2.8 1-2.8 1-2.8 1-2.8 1.1-2.8 1.1-2.8 1.1-2.8 1.1-2.8 1.2-2.8 1.2-2.8 1.2-2.8 1.2-2.8 1.3-2.7 1.3-2.7 2.6-5.4 1.4-2.8 1.4-2.7 1.4-2.7 1.4-2.7 1.4-2.7 1.5-2.6 1.5-2.6 1.5-2.6 1.5-2.6 1.5-2.6 1.6-2.6 1.6-2.6 1.6-2.5 1.6-2.5 1.6-2.5 1.6-2.5 1.7-2.5 1.7-2.5 1.7-2.5 1.7-2.4 1.7-2.4 1.8-2.4 1.8-2.4 1.8-2.4 1.8-2.4 1.8-2.4 1.9-2.3 1.9-2.3 1.9-2.3 1.9-2.3 1.9-2.3 1.9-2.3 2-2.2 2-2.2 2-2.2 2-2.2 2-2.2 2-2.2 2.1-2.1 2.1-2.1 2.1-2.1 2.1-2.1 2.1-2.1 2.1-2.1 2.2-2 2.2-2 2.2-2 2.2-2 2.2-2 2.2-2 2.3-1.9 2.3-1.9 2.3-1.9 2.3-1.9 2.3-1.9 2.3-1.9 2.3-1.8 2.4-1.8 2.4-1.8 2.4-1.8 2.4-1.8 2.4-1.7 2.4-1.7 2.4-1.7 2.5-1.7 2.5-1.7 2.5-1.6 2.5-1.6 2.5-1.6 2.5-1.6 2.5-1.6 2.6-1.5 2.6-1.5 2.6-1.5 2.6-1.5 2.6-1.5 2.6-1.4 2.6-1.4 2.6-1.4 2.7-1.4 2.7-1.4 2.7-1.3 2.7-1.3 2.7-1.3 2.7-1.3 2.7-1.3 2.7-1.2 2.8-1.2 2.8-1.2 2.8-1.2 2.8-1.2 2.8-1.1 2.8-1.1 2.8-1.1 2.8-1.1 2.8-1 2.8-1 2.9-1 5.7-1.9 3.7-0.6 3.5 0.6 3.2 1.6 2.6 2.5 1.7 3.3 0.6 3.6-0.6 3.5-1.6 3.2-2.5 2.5-3.3 1.7-5.4 1.8-2.7 0.9-2.7 1-2.7 1-2.7 1-2.6 1-2.6 1-2.6 1.1-2.6 1.1-2.6 1.1-2.6 1.1-2.6 1.1-2.6 1.2-2.6 1.2-2.5 1.2-2.5 1.2-2.5 1.2-2.5 1.3-2.5 1.3-2.5 1.3-2.5 1.3-2.5 1.3-2.5 1.4-2.4 1.4-2.4 1.4-2.4 1.4-2.4 1.4-2.4 1.5-2.4 1.5-2.4 1.5-2.4 1.5-2.3 1.5-2.3 1.5-2.3 1.6-2.3 1.6-2.3 1.6-2.3 1.6-2.3 1.6-2.3 1.7-2.2 1.7-2.2 1.7-2.2 1.7-2.2 1.7-2.2 1.7-2.2 1.8-2.2 1.8-2.1 1.8-2.1 1.8-2.1 1.8-2.1 1.8-2.1 1.9-2.1 1.9-2.1 1.9-2 1.9-2 1.9-2 1.9-2 2-2 2-2 2-2 2-1.9 2-1.9 2-1.9 2-1.9 2.1-1.9 2.1-1.9 2.1-1.8 2.1-1.8 2.1-1.8 2.1-1.8 2.2-1.8 2.2-1.8 2.2-1.7 2.2-1.7 2.2-1.7 2.2-1.7 2.2-1.7 2.3-1.7 2.3-1.6 2.3-1.6 2.3-1.6 2.3-1.6 2.3-1.6 2.3-1.5 2.4-1.5 2.4-1.5 2.4-1.5 2.4-1.5 2.4-1.5 2.4-1.4 2.4-1.7 2.8-1.4 2.5-1.4 2.5-1.4 2.5-1.3 2.5-1.3 2.5-1.3 2.5-1.3 2.5-1.2 2.5-2.5 5.2-1.2 2.6-1.2 2.6-1.2 2.6-1.1 2.6-1.1 2.6-1.1 2.6-1.1 2.6-1.1 2.6-1 2.6-1 2.6-1 2.6-1 2.6-0.9 2.7-0.9 2.7-0.9 2.7-0.9 2.7-0.9 2.7-0.8 2.7-0.8 2.7-0.8 2.7-0.8 2.7-0.7 2.7-0.7 2.7-0.7 2.7-0.7 2.7-0.7 2.7-0.6 2.7-0.6 2.7-0.6 2.7-0.6 2.7-0.6 2.7-0.5 2.7-0.5 2.7-0.5 2.7-0.5 2.8-0.4 2.8-0.4 2.8-0.4 2.8-0.4 2.8-0.4 2.8-0.3 2.8-0.3 2.8-0.3 2.8-0.3 2.8-0.2 2.8-0.2 2.8-0.2 2.8-0.2 2.8-0.2 2.8-0.1 2.8-0.1 2.8-0.1 2.8-0.1 2.8v14l0.1 2.8 0.1 2.8 0.1 2.8 0.1 2.8 0.2 2.8 0.2 2.8 0.2 2.8 0.2 2.8 0.2 2.8 0.3 2.8 0.3 2.8 0.3 2.8 0.3 2.8 0.4 2.8 0.4 2.8 0.4 2.8 0.4 2.8 0.4 2.8 0.5 2.8 0.5 2.8 0.5 2.8 0.5 2.8 0.6 2.8 0.6 2.8 0.6 2.7 0.6 2.7 0.6 2.7 0.7 2.7 0.7 2.7 0.7 2.7 0.7 2.7 0.8 2.7 0.8 2.7 0.8 2.7 0.8 2.7 0.8 2.7 0.9 2.7 0.9 2.7 0.9 2.7 1.1 1.9zM181 653c0-7.7 6.3-14 14-14s14 6.3 14 14-6.3 14-14 14-14-6.3-14-14zM468.8 178.7c-0.4-0.6-1.1-1-1.9-0.9l-8.3 1-5.5-6.3c-0.5-0.6-1.3-0.8-2-0.6-0.7 0.2-1.3 0.8-1.4 1.5l-1.6 8.2-7.7 3.3c-0.7 0.3-1.1 1-1.2 1.7 0 0.7 0.4 1.5 1 1.8l7.3 4.1 0.8 8.3c0.1 0.7 0.6 1.4 1.3 1.7 0.7 0.3 1.5 0.1 2-0.4l6.2-5.7 8.2 1.8c0.3 0.1 0.6 0.1 0.9 0 0.4-0.1 0.8-0.3 1-0.7 0.5-0.6 0.6-1.4 0.3-2.1l-3.5-7.6 4.3-7.2c0.2-0.5 0.2-1.3-0.2-1.9zM805.8 297.3c-0.2-0.7-0.8-1.2-1.6-1.4l-8.2-1.2-3.7-7.6c-0.3-0.7-1-1.1-1.8-1.1s-1.4 0.4-1.8 1.1l-3.7 7.6-8.2 1.2c-0.7 0.1-1.4 0.6-1.6 1.4-0.2 0.7 0 1.5 0.5 2l6 5.9-1.4 8.3c-0.1 0.8 0.2 1.5 0.8 1.9 0.6 0.4 1.4 0.5 2.1 0.2l7.4-3.9 7.4 3.9c0.3 0.2 0.6 0.2 0.9 0.2 0.4 0 0.8-0.1 1.2-0.4 0.6-0.4 0.9-1.2 0.8-1.9l-1.4-8.3 6-5.9c0.3-0.5 0.5-1.3 0.3-2zM550.8 826.9c-0.2-0.7-0.8-1.2-1.6-1.3l-8.2-1.2-3.7-7.3c-0.3-0.7-1-1.1-1.8-1.1s-1.4 0.4-1.8 1.1l-3.7 7.3-8.2 1.2c-0.7 0.1-1.4 0.6-1.6 1.3-0.2 0.7 0 1.5 0.5 2l6 5.7-1.4 8.1c-0.1 0.7 0.2 1.5 0.8 1.9 0.6 0.4 1.4 0.5 2.1 0.1l7.4-3.8 7.4 3.8c0.3 0.1 0.6 0.2 0.9 0.2 0.4 0 0.8-0.1 1.2-0.4 0.6-0.4 0.9-1.2 0.8-1.9l-1.4-8.1 6-5.7c0.3-0.4 0.5-1.2 0.3-1.9z" fill="#FFFFFF" p-id="1871"></path><path d="M247.4 576.2c0-0.7-0.4-1.4-1.1-1.8l-7.4-3.8-1.1-8.3c-0.1-0.7-0.6-1.4-1.3-1.6-0.7-0.2-1.5-0.1-2 0.5l-6 5.9-8.2-1.6c-0.7-0.1-1.5 0.2-1.9 0.7-0.5 0.6-0.5 1.4-0.2 2.1l3.8 7.5-4 7.3c-0.4 0.7-0.3 1.5 0.1 2.1 0.4 0.6 1.2 0.9 1.9 0.8l8.3-1.3 5.7 6.1c0.2 0.2 0.5 0.4 0.8 0.5 0.4 0.1 0.8 0.1 1.2 0 0.7-0.2 1.2-0.8 1.4-1.6l1.4-8.3 7.6-3.6c0.5-0.1 1-0.8 1-1.6zM800.8 654.3c-0.2-0.7-0.8-1.2-1.6-1.4l-8.2-1.2-3.7-7.6c-0.3-0.7-1-1.1-1.8-1.1s-1.4 0.4-1.8 1.1l-3.7 7.6-8.2 1.2c-0.7 0.1-1.4 0.6-1.6 1.4-0.2 0.7 0 1.5 0.5 2l6 5.9-1.4 8.3c-0.1 0.8 0.2 1.5 0.8 1.9 0.6 0.4 1.4 0.5 2.1 0.2l7.4-3.9 7.4 3.9c0.3 0.2 0.6 0.2 0.9 0.2 0.4 0 0.8-0.1 1.2-0.4 0.6-0.4 0.9-1.2 0.8-1.9l-1.4-8.3 6-5.9c0.3-0.5 0.5-1.3 0.3-2z" fill="#FFFFFF" p-id="1872"></path><path d="M283 519.5c0-129 104.5-233.5 233.5-233.5S750 390.5 750 519.5 645.5 753 516.5 753 283 648.5 283 519.5z" fill="#FACC7E" p-id="1873"></path><path d="M474 405c19.3 0 35 15.7 35 35s-15.7 35-35 35-35-15.7-35-35 15.7-35 35-35zM584.5 296l1.4 0.4c29.1 9.1 55.8 23.8 78.8 42.9l14.3 13.1-3.9 7.2c-9.9 14.8-26.8 24.5-45.8 24.5-30.5 0-55.3-24.9-55.3-55.6 0-11.5 3.5-22.2 9.4-31.1l1.1-1.4zM637.5 510c20.2 0 36.5 16.3 36.5 36.5S657.7 583 637.5 583 601 566.7 601 546.5s16.3-36.5 36.5-36.5zM545.5 705c20.2 0 36.5 16.5 36.5 36.8l-0.2 1.6-18.6 4.8c-15.2 3.1-30.9 4.8-47.1 4.8l-5.3-0.3-1.1-3.6c-0.5-2.4-0.7-4.9-0.7-7.4 0-20.2 16.3-36.7 36.5-36.7zM467.5 619c13.5 0 24.5 11 24.5 24.5S481 668 467.5 668 443 657 443 643.5s11-24.5 24.5-24.5zM573.5 450c13.5 0 24.5 11 24.5 24.5S587 499 573.5 499 549 488 549 474.5s11-24.5 24.5-24.5zM296.6 457c13.5 0 24.4 11 24.4 24.5S310.1 506 296.6 506c-3.4 0-6.6-0.7-9.5-1.9l-3.1-1.7 0.3-6.4c0.8-7.8 2-15.6 3.5-23.2l3.9-15.3 4.9-0.5zM411.4 311l2.2 1.2c8.7 5.9 14.4 15.8 14.4 27.1 0 18.1-14.6 32.7-32.7 32.7-15.8 0-29-11.2-32-26.1l-0.2-2.5 4.6-4.1c11.5-9.5 24-18 37.3-25.2l6.4-3.1zM428.5 558c13.5 0 24.5 11 24.5 24.5S442 607 428.5 607 404 596 404 582.5s11-24.5 24.5-24.5z" fill="#F6A824" p-id="1874"></path><path d="M646.3 284.4l-3.1 3-26.2-26.6 3.1-3 26.2 26.6z" fill="#D6DCE5" p-id="1875"></path><path d="M654 280.9c3.9 4 3.9 10.3-0.1 14.2-4 3.9-10.3 3.9-14.2-0.1-3.9-4-3.9-10.3 0.1-14.2s10.3-3.9 14.2 0.1z" fill="#D6DCE5" p-id="1876"></path><path d="M622.4 255.4c2.1 2.1 2.1 5.6-0.1 7.7-2.1 2.1-5.6 2.1-7.7-0.1-2.1-2.1-2.1-5.6 0.1-7.7 2.1-2 5.6-2 7.7 0.1z" fill="#FACC7E" p-id="1877"></path><path d="M759.6 334.2l-71.1 64.6-5.8-6.4 71.1-64.6 5.8 6.4z" fill="#ADB9CA" p-id="1878"></path><path d="M813.6 322.8c3.2 3.5 2.9 8.8-0.6 12l-25.1 22.8c-3.5 3.1-8.8 2.9-12-0.6l-45.8-50.3c-3.1-3.5-2.9-8.8 0.6-12l25.1-22.8c3.5-3.2 8.8-2.9 12 0.6l45.8 50.3z" fill="#5EC8FA" p-id="1879"></path><path d="M766.1 309.6l-9.3-10.3-10.3 9.3 9.3 10.3 10.3-9.3z m12.2-11.2l-9.3-10.3-10.3 9.3 9.3 10.3 10.3-9.3z m-1.1 23.4l-9.3-10.3-10.3 9.3 9.3 10.3 10.3-9.3z m12.3-11.1l-9.3-10.3-10.3 9.3 9.3 10.3 10.3-9.3z m-1.1 23.4l-9.3-10.3-10.3 9.3 9.3 10.3 10.3-9.3z m12.2-11.2l-9.3-10.3L781 322l9.3 10.3 10.3-9.4z m12.4 11.9l-0.9 0.8-9.7-10.7-10.3 9.3 9.7 10.7-2 1.8-9.7-10.7-10.3 9.3 9.7 10.7-1.7 1.5-0.3 0.2-9.7-10.6-6 5.4-1.8-2 6-5.4-9.3-10.3-6 5.4-1.8-2 6-5.4-9.3-10.3-6 5.4-1.8-2 6-5.4-9.3-10.3-6 5.4-1.8-2 6-5.4-12.2-13.2 0.3-0.3 1.7-1.5 12.2 13.5 10.3-9.3-12.2-13.5 2-1.8 12.2 13.5 10.3-9.3-12.3-13.6 0.9-0.8 1.2-0.9 12.1 13.3 5.2-4.7 1.8 2-5.2 4.7 9.3 10.3 5.2-4.7 1.8 2-5.2 4.7 9.3 10.3 5.2-4.7 1.8 2-5.2 4.7 9.3 10.3 5.2-4.7 1.8 2-5.2 4.7 9.6 10.6-0.9 1z" fill="#0573A7" p-id="1880"></path><path d="M707.9 420.2c3.2 3.5 2.9 8.8-0.6 12L682.2 455c-3.5 3.1-8.8 2.9-12-0.6l-45.8-50.3c-3.1-3.5-2.9-8.8 0.6-12l25.1-22.8c3.5-3.1 8.8-2.9 12 0.6l45.8 50.3z" fill="#5EC8FA" p-id="1881"></path><path d="M660.4 406.9l-9.3-10.3-10.3 9.3 9.3 10.3 10.3-9.3z m12.2-11.1l-9.3-10.3-10.3 9.3 9.3 10.3 10.3-9.3z m-1.1 23.4l-9.3-10.3-10.3 9.3 9.3 10.3 10.3-9.3z m12.3-11.2l-9.3-10.3-10.3 9.3 9.3 10.3 10.3-9.3z m-1.1 23.4l-9.3-10.3-10.3 9.3 9.3 10.3 10.3-9.3z m12.2-11.1l-9.3-10.3-10.3 9.3 9.3 10.3 10.3-9.3z m12.4 11.9l-0.9 0.8-9.7-10.7-10.3 9.3 9.7 10.7-2 1.8-9.7-10.7-10.3 9.3 9.7 10.7-1.7 1.5-0.3 0.2-9.7-10.6-6 5.4-1.8-2 6-5.4-9.3-10.3-6 5.4-1.8-2 6-5.4-9.3-10.3-6 5.4-1.8-2 6-5.4-9.3-10.3-6 5.4-1.8-2 6-5.4-12.2-13.4 0.3-0.3 1.7-1.5L639 404l10.3-9.3-12.3-13.5 2-1.8 12.2 13.5 10.3-9.3-12.2-13.5 0.9-0.8 1.2-0.9 12.1 13.3 5.2-4.7 1.8 2-5.2 4.7 9.3 10.3 5.2-4.7 1.8 2-5.2 4.7 9.3 10.3 5.2-4.7 1.8 2-5.2 4.7 9.3 10.3 5.2-4.7 1.8 2-5.2 4.7 9.6 10.6-0.9 1z" fill="#0573A7" p-id="1882"></path><path d="M759 391.1l6.4 12-14.2 12.9-11.3-7.5 19.1-17.4zM685.8 310.7l-11.3-7.5-14.2 12.9 6.4 12 19.1-17.4z" fill="#5EC8FA" p-id="1883"></path><path d="M767.2 376.8c3.5 3.9 3.3 9.9-0.6 13.5l-28.2 25.6c-3.9 3.5-9.9 3.3-13.5-0.6L658 341.7c-3.5-3.9-3.3-9.9 0.6-13.5l28.2-25.6c3.9-3.5 9.9-3.3 13.5 0.6l66.9 73.6z" fill="#BAF1EF" p-id="1884"></path><path d="M783.2 411.6l-25.4 22.7c-6.1-4.1-9-11.5-7.3-18.7 0.6-2.7 1.9-5.1 3.6-7.1l0.2-0.2 3.1-2.8 0.6-0.4c2.2-1.4 4.7-2.4 7.5-2.7 7.3-1 14.3 2.7 17.7 9.2z" fill="#E6E5E5" p-id="1885"></path><path d="M671.4 313.6c-4.2 3.9-9.6 6.5-15.6 7.4-11.9 1.7-23.6-4.2-29.3-14.8l41-37.9c10.1 6.5 15.1 18.7 12.5 30.4-1.4 5.8-4.4 11-8.6 14.9z" fill="#ADB9CA" p-id="1886"></path><path d="M752.8 385c1.3 1.5 1.2 3.7-0.2 5.1l-27.7 25.2-4.8-5.3 27.7-25.2c1.4-1.4 3.7-1.3 5 0.2zM690.7 316.8c1.3 1.5 1.2 3.7-0.2 5.1L662.8 347l-4.8-5.3 27.7-25.2c1.4-1.3 3.7-1.2 5 0.3z" fill="#F97B6E" p-id="1887"></path></svg>