<?xml version="1.0" standalone="no"?><!DOCTYPE svg PUBLIC "-//W3C//DTD SVG 1.1//EN" "http://www.w3.org/Graphics/SVG/1.1/DTD/svg11.dtd"><svg t="1586315665486" class="icon" viewBox="0 0 1024 1024" version="1.1" xmlns="http://www.w3.org/2000/svg" p-id="1574" xmlns:xlink="http://www.w3.org/1999/xlink" width="200" height="200"><defs><style type="text/css"></style></defs><path d="M113 489.5C113 268.9 291.6 90 512 90s399 178.9 399 399.5S732.4 889 512 889 113 710.1 113 489.5z" fill="#333F50" p-id="1575"></path><path d="M194.2 607.6l0.5 1.8 0.2 1.8-0.1 1.8-0.4 1.7-0.6 1.6-0.9 1.5-1.1 1.4-1.3 1.2-1.5 1-1.7 0.8-1.8 0.5-1.8 0.2-1.8-0.1-1.7-0.4-1.7-0.6-1.5-0.9-1.4-1.1-1.2-1.3-1-1.5-0.8-1.7-1-2.9-1-2.9-0.9-2.9-0.9-2.9-0.9-2.9-0.9-2.9-0.9-2.9-0.8-2.9-0.8-2.9-0.8-2.9-0.8-2.9-0.7-2.9-0.7-2.9-0.7-2.9-0.7-2.9-0.6-2.9-0.6-2.9-0.6-2.9-0.6-2.9-0.5-2.9-0.5-2.9-0.5-2.9-0.5-2.9-0.4-3-0.4-3-0.4-3-0.4-3-0.4-3-0.3-3-0.3-3-0.3-3-0.3-3-0.2-3-0.2-3-0.2-3-0.2-3-0.1-3-0.1-3-0.1-3-0.1-3v-15l0.1-3 0.1-3 0.1-3 0.1-3 0.2-3 0.2-3 0.2-3 0.2-3 0.3-3 0.3-3 0.3-3 0.3-3 0.4-2.9 0.4-2.9 0.4-2.9 0.4-2.9 0.4-2.9 0.5-2.9 0.5-2.9 0.5-2.9 0.5-2.9 0.6-2.9 0.6-2.9 0.6-2.9 0.6-2.9 0.7-2.9 0.7-2.9 0.7-2.9 0.7-2.9 0.7-2.9 0.8-2.9 0.8-2.9 0.8-2.9 0.8-2.9 0.9-2.9 0.9-2.9 0.9-2.8 0.9-2.8 1-2.8 1-2.8 1-2.8 1-2.8 1-2.8 1.1-2.8 1.1-2.8 1.1-2.8 1.1-2.8 1.2-2.8 1.2-2.8 1.2-2.8 1.2-2.8 1.3-2.7 1.3-2.7 2.6-5.4 1.4-2.8 1.4-2.7 1.4-2.7 1.4-2.7 1.4-2.7 1.5-2.6 1.5-2.6 1.5-2.6 1.5-2.6 1.5-2.6 1.6-2.6 1.6-2.6 1.6-2.5 1.6-2.5 1.6-2.5 1.6-2.5 1.7-2.5 1.7-2.5 1.7-2.5 1.7-2.4 1.7-2.4 1.8-2.4 1.8-2.4 1.8-2.4 1.8-2.4 1.8-2.4 1.9-2.3 1.9-2.3 1.9-2.3 1.9-2.3 1.9-2.3 1.9-2.3 2-2.2 2-2.2 2-2.2 2-2.2 2-2.2 2-2.2 2.1-2.1 2.1-2.1 2.1-2.1 2.1-2.1 2.1-2.1 2.1-2.1 2.2-2 2.2-2 2.2-2 2.2-2 2.2-2 2.2-2 2.3-1.9 2.3-1.9 2.3-1.9 2.3-1.9 2.3-1.9 2.3-1.9 2.3-1.8 2.4-1.8 2.4-1.8 2.4-1.8 2.4-1.8 2.4-1.7 2.4-1.7 2.4-1.7 2.5-1.7 2.5-1.7 2.5-1.6 2.5-1.6 2.5-1.6 2.5-1.6 2.5-1.6 2.6-1.5 2.6-1.5 2.6-1.5 2.6-1.5 2.6-1.5 2.6-1.4 2.6-1.4 2.6-1.4 2.7-1.4 2.7-1.4 2.7-1.3 2.7-1.3 2.7-1.3 2.7-1.3 2.7-1.3 2.7-1.2 2.8-1.2 2.8-1.2 2.8-1.2 2.8-1.2 2.8-1.1 2.8-1.1 2.8-1.1 2.8-1.1 2.8-1 2.8-1 2.9-1 5.7-1.9 3.7-0.6 3.5 0.6 3.2 1.6 2.6 2.5 1.7 3.3 0.6 3.6-0.6 3.5-1.6 3.2-2.5 2.5-3.3 1.7-5.4 1.8-2.7 0.9-2.7 1-2.7 1-2.7 1-2.6 1-2.6 1-2.6 1.1-2.6 1.1-2.6 1.1-2.6 1.1-2.6 1.1-2.6 1.2-2.6 1.2-2.5 1.2-2.5 1.2-2.5 1.2-2.5 1.3-2.5 1.3-2.5 1.3-2.5 1.3-2.5 1.3-2.5 1.4-2.4 1.4-2.4 1.4-2.4 1.4-2.4 1.4-2.4 1.5-2.4 1.5-2.4 1.5-2.4 1.5-2.3 1.5-2.3 1.5-2.3 1.6-2.3 1.6-2.3 1.6-2.3 1.6-2.3 1.6-2.3 1.7-2.2 1.7-2.2 1.7-2.2 1.7-2.2 1.7-2.2 1.7-2.2 1.8-2.2 1.8-2.1 1.8-2.1 1.8-2.1 1.8-2.1 1.8-2.1 1.9-2.1 1.9-2.1 1.9-2 1.9-2 1.9-2 1.9-2 2-2 2-2 2-2 2-1.9 2-1.9 2-1.9 2-1.9 2.1-1.9 2.1-1.9 2.1-1.8 2.1-1.8 2.1-1.8 2.1-1.8 2.2-1.8 2.2-1.8 2.2-1.7 2.2-1.7 2.2-1.7 2.2-1.7 2.2-1.7 2.3-1.7 2.3-1.6 2.3-1.6 2.3-1.6 2.3-1.6 2.3-1.6 2.3-1.5 2.4-1.5 2.4-1.5 2.4-1.5 2.4-1.5 2.4-1.5 2.4-1.4 2.4-1.7 2.8-1.4 2.5-1.4 2.5-1.4 2.5-1.3 2.5-1.3 2.5-1.3 2.5-1.3 2.5-1.2 2.5-2.5 5.2-1.2 2.6-1.2 2.6-1.2 2.6-1.1 2.6-1.1 2.6-1.1 2.6-1.1 2.6-1.1 2.6-1 2.6-1 2.6-1 2.6-1 2.6-0.9 2.7-0.9 2.7-0.9 2.7-0.9 2.7-0.9 2.7-0.8 2.7-0.8 2.7-0.8 2.7-0.8 2.7-0.7 2.7-0.7 2.7-0.7 2.7-0.7 2.7-0.7 2.7-0.6 2.7-0.6 2.7-0.6 2.7-0.6 2.7-0.6 2.7-0.5 2.7-0.5 2.7-0.5 2.7-0.5 2.8-0.4 2.8-0.4 2.8-0.4 2.8-0.4 2.8-0.4 2.8-0.3 2.8-0.3 2.8-0.3 2.8-0.3 2.8-0.2 2.8-0.2 2.8-0.2 2.8-0.2 2.8-0.2 2.8-0.1 2.8-0.1 2.8-0.1 2.8-0.1 2.8v14l0.1 2.8 0.1 2.8 0.1 2.8 0.1 2.8 0.2 2.8 0.2 2.8 0.2 2.8 0.2 2.8 0.2 2.8 0.3 2.8 0.3 2.8 0.3 2.8 0.3 2.8 0.4 2.8 0.4 2.8 0.4 2.8 0.4 2.8 0.4 2.8 0.5 2.8 0.5 2.8 0.5 2.8 0.5 2.8 0.6 2.8 0.6 2.8 0.6 2.7 0.6 2.7 0.6 2.7 0.7 2.7 0.7 2.7 0.7 2.7 0.7 2.7 0.8 2.7 0.8 2.7 0.8 2.7 0.8 2.7 0.8 2.7 0.9 2.7 0.9 2.7 0.9 2.7 1.1 1.9zM181 653c0-7.7 6.3-14 14-14s14 6.3 14 14-6.3 14-14 14-14-6.3-14-14zM468.8 178.7c-0.4-0.6-1.1-1-1.9-0.9l-8.3 1-5.5-6.3c-0.5-0.6-1.3-0.8-2-0.6-0.7 0.2-1.3 0.8-1.4 1.5l-1.6 8.2-7.7 3.3c-0.7 0.3-1.1 1-1.2 1.7 0 0.7 0.4 1.5 1 1.8l7.3 4.1 0.8 8.3c0.1 0.7 0.6 1.4 1.3 1.7 0.7 0.3 1.5 0.1 2-0.4l6.2-5.7 8.2 1.8c0.3 0.1 0.6 0.1 0.9 0 0.4-0.1 0.8-0.3 1-0.7 0.5-0.6 0.6-1.4 0.3-2.1l-3.5-7.6 4.3-7.2c0.2-0.5 0.2-1.3-0.2-1.9zM805.8 297.3c-0.2-0.7-0.8-1.2-1.6-1.4l-8.2-1.2-3.7-7.6c-0.3-0.7-1-1.1-1.8-1.1s-1.4 0.4-1.8 1.1l-3.7 7.6-8.2 1.2c-0.7 0.1-1.4 0.6-1.6 1.4-0.2 0.7 0 1.5 0.5 2l6 5.9-1.4 8.3c-0.1 0.8 0.2 1.5 0.8 1.9 0.6 0.4 1.4 0.5 2.1 0.2l7.4-3.9 7.4 3.9c0.3 0.2 0.6 0.2 0.9 0.2 0.4 0 0.8-0.1 1.2-0.4 0.6-0.4 0.9-1.2 0.8-1.9l-1.4-8.3 6-5.9c0.3-0.5 0.5-1.3 0.3-2zM550.8 826.9c-0.2-0.7-0.8-1.2-1.6-1.3l-8.2-1.2-3.7-7.3c-0.3-0.7-1-1.1-1.8-1.1s-1.4 0.4-1.8 1.1l-3.7 7.3-8.2 1.2c-0.7 0.1-1.4 0.6-1.6 1.3-0.2 0.7 0 1.5 0.5 2l6 5.7-1.4 8.1c-0.1 0.7 0.2 1.5 0.8 1.9 0.6 0.4 1.4 0.5 2.1 0.1l7.4-3.8 7.4 3.8c0.3 0.1 0.6 0.2 0.9 0.2 0.4 0 0.8-0.1 1.2-0.4 0.6-0.4 0.9-1.2 0.8-1.9l-1.4-8.1 6-5.7c0.3-0.4 0.5-1.2 0.3-1.9z" fill="#FFFFFF" p-id="1576"></path><path d="M247.4 576.2c0-0.7-0.4-1.4-1.1-1.8l-7.4-3.8-1.1-8.3c-0.1-0.7-0.6-1.4-1.3-1.6-0.7-0.2-1.5-0.1-2 0.5l-6 5.9-8.2-1.6c-0.7-0.1-1.5 0.2-1.9 0.7-0.5 0.6-0.5 1.4-0.2 2.1l3.8 7.5-4 7.3c-0.4 0.7-0.3 1.5 0.1 2.1 0.4 0.6 1.2 0.9 1.9 0.8l8.3-1.3 5.7 6.1c0.2 0.2 0.5 0.4 0.8 0.5 0.4 0.1 0.8 0.1 1.2 0 0.7-0.2 1.2-0.8 1.4-1.6l1.4-8.3 7.6-3.6c0.5-0.1 1-0.8 1-1.6zM800.8 654.3c-0.2-0.7-0.8-1.2-1.6-1.4l-8.2-1.2-3.7-7.6c-0.3-0.7-1-1.1-1.8-1.1s-1.4 0.4-1.8 1.1l-3.7 7.6-8.2 1.2c-0.7 0.1-1.4 0.6-1.6 1.4-0.2 0.7 0 1.5 0.5 2l6 5.9-1.4 8.3c-0.1 0.8 0.2 1.5 0.8 1.9 0.6 0.4 1.4 0.5 2.1 0.2l7.4-3.9 7.4 3.9c0.3 0.2 0.6 0.2 0.9 0.2 0.4 0 0.8-0.1 1.2-0.4 0.6-0.4 0.9-1.2 0.8-1.9l-1.4-8.3 6-5.9c0.3-0.5 0.5-1.3 0.3-2z" fill="#FFFFFF" p-id="1577"></path><path d="M508.5 275c65.6 0 125 26.5 167.9 69.5l9.2 10.1 5.6-0.9c2.9-0.3 5.8-0.4 8.8-0.4 47.5 0 86 38.5 86 85.9 0 29.6-15 55.8-37.9 71.2l-2.1 1.1v0.7c0 40.9-10.4 79.5-28.7 113.1l-9.6 15.9 2 2.5c4.2 6.2 6.6 13.6 6.6 21.6 0 21.3-17.3 38.6-38.7 38.6-5.3 0-10.4-1.1-15.1-3l-6-3.3-15.3 11.4c-4.7 3.2-9.6 6.2-14.6 9.1l-14.7 7.8-2.7 8.8c-13 30.7-43.6 52.3-79.2 52.3-29.7 0-55.9-15-71.3-37.9l-3.2-5.9-17.6-4.5C341.2 708.7 271 618.6 271 512.2c0-8.2 0.4-16.3 1.2-24.3l2.2-14.2-6.4-5.3c-15.4-15.4-24.9-36.7-24.9-60.1 0-47 38.1-85.1 85.2-85.1 8.8 0 17.3 1.3 25.3 3.8l4.5 1.6 17.7-13.2c37.8-25.5 83.5-40.4 132.7-40.4z" fill="#9EDEFC" p-id="1578"></path><path d="M267 407.5c0-31.2 25.3-56.5 56.5-56.5s56.5 25.3 56.5 56.5-25.3 56.5-56.5 56.5-56.5-25.3-56.5-56.5zM467 693c0-35.9 29.1-65 65-65s65 29.1 65 65-29.1 65-65 65-65-29.1-65-65zM628 441.5c0-38.9 31.6-70.5 70.5-70.5s70.5 31.6 70.5 70.5-31.6 70.5-70.5 70.5-70.5-31.6-70.5-70.5zM612 598c0-12.7 10.3-23 23-23s23 10.3 23 23-10.3 23-23 23-23-10.3-23-23zM445 541c0-9.4 7.6-17 17-17s17 7.6 17 17-7.6 17-17 17-17-7.6-17-17zM474 512c0-9.4 7.6-17 17-17s17 7.6 17 17-7.6 17-17 17-17-7.6-17-17zM400 632.5c0-6.9 5.6-12.5 12.5-12.5s12.5 5.6 12.5 12.5-5.6 12.5-12.5 12.5-12.5-5.6-12.5-12.5zM508 274c24.6 0 48.4 3.7 70.7 10.6l21.3 7.7-0.3 6.3c-4.7 46.2-44 82.3-91.7 82.3s-87-36.1-91.7-82.3l-0.3-6.2 4.8-2.1c27-10.5 56.4-16.3 87.2-16.3z" fill="#5EC8FA" p-id="1579"></path><path d="M481.8 362.7l0.9 0.3 0.8 0.5 0.7 0.6 0.6 0.7 0.5 0.8 0.4 0.8 0.3 0.9 0.1 0.9v1l-0.2 1-0.3 0.9-0.5 0.8-0.6 0.7-0.7 0.6-0.8 0.5-0.8 0.4-0.9 0.3-0.9 0.1h-1l-1-0.2-1.3-0.4-1.2-0.4-1.2-0.4-1.2-0.4-1.2-0.4-1.2-0.4-1.2-0.4-1.2-0.5-1.2-0.5-1.2-0.5-1.2-0.5-1.2-0.5-1.1-0.5-1.1-0.6-1.1-0.6-1.1-0.6-1.1-0.6-1.1-0.6-1.1-0.6-1.1-0.6-1.1-0.6-1.1-0.7-1-0.7-1-0.7-1-0.7-1-0.7-1-0.7-1-0.7-1-0.8-1-0.8-1-0.8-1-0.8-0.9-0.8-0.9-0.8-0.9-0.8-0.9-0.8-0.9-0.8-0.9-0.9-0.9-0.9-0.9-0.9-0.9-0.9-0.8-0.9-0.8-0.9-0.8-0.9-0.8-0.9-0.8-0.9-0.8-1-0.8-1-0.8-1-0.7-1-0.7-1-0.7-1-0.7-1-0.7-1-0.7-1-0.7-1-0.6-1-0.6-1.1-0.6-1.1-0.6-1.1-0.6-1.1-0.6-1.1-0.6-1.1-0.6-1.1-0.5-1.1-0.5-1.1-0.5-1.1-0.5-1.1-0.5-1.1-0.5-1.1-0.4-1.2-0.4-1.2-0.4-1.2-0.4-1.2-0.4-1.2-0.4-1.2-0.4-1.2-0.3-1.2-0.3-1.2-0.3-1.2-0.3-1.2-0.3-1.2-0.3-1.2-0.2-1.2-0.2-1.2-0.2-1.2-0.2-1.2-0.2-1.3-0.2-1.3-0.1-1.3-0.1-1.3-0.1-1.3-0.1-1.3-0.1-1.3-0.1-1.3V281l0.4-1.9 0.9-1.6 1.3-1.3 1.7-0.8 1.9-0.3 1.9 0.4 1.6 0.9 1.3 1.3 0.8 1.7 0.3 1.9v5.6l0.1 1.1 0.1 1.1 0.1 1.1 0.1 1.1 0.1 1.1 0.1 1.1 0.1 1.1 0.2 1.1 0.2 1.1 0.2 1.1 0.2 1.1 0.2 1.1 0.2 1.1 0.2 1.1 0.3 1.1 0.3 1.1 0.3 1.1 0.3 1 0.3 1 0.3 1 0.3 1 0.4 1 0.4 1 0.4 1 0.4 1 0.4 1 0.4 1 0.4 1 0.4 1 0.5 1 0.5 1 0.5 1 0.5 1 0.5 0.9 0.5 0.9 0.5 0.9 0.5 0.9 0.6 0.9 0.6 0.9 0.6 0.9 0.6 0.9 0.6 0.9 0.6 0.9 0.6 0.9 0.6 0.9 0.6 0.9 0.7 0.8 0.7 0.8 0.7 0.8 0.7 0.8 0.7 0.8 0.7 0.8 0.7 0.8 0.7 0.8 0.7 0.8 0.8 0.8 0.8 0.8 0.8 0.7 0.8 0.7 0.8 0.7 0.8 0.7 0.8 0.7 0.8 0.7 0.8 0.7 0.8 0.7 0.9 0.7 0.9 0.7 0.9 0.6 0.9 0.6 0.9 0.6 0.9 0.6 0.9 0.6 0.9 0.6 0.9 0.6 0.9 0.6 0.9 0.6 1 0.5 1 0.5 1 0.5 1 0.5 1 0.5 1 0.5 1 0.5 1 0.5 1 0.4 1 0.4 1 0.4 1 0.4 1 0.4 1.1 0.4 1.1 0.4 1.1 0.3 1.1 0.3 1.1 0.3 0.9 0.5zM533.3 362.7l-0.9 0.3-0.8 0.5-0.7 0.6-0.6 0.7-0.5 0.8-0.4 0.8-0.3 0.9-0.1 0.9v1l0.2 1 0.3 0.9 0.5 0.8 0.6 0.7 0.7 0.6 0.8 0.5 0.8 0.4 0.9 0.3 0.9 0.1h1l1-0.2 1.3-0.4 1.2-0.4 1.2-0.4 1.2-0.4 1.2-0.4 1.2-0.4 1.2-0.4 1.2-0.5 1.2-0.5 1.2-0.5 1.2-0.5 1.2-0.5 1.1-0.5 1.1-0.6 1.1-0.6 1.1-0.6 1.1-0.6 1.1-0.6 1.1-0.6 1.1-0.6 1.1-0.6 1.1-0.7 1-0.7 1-0.7 1-0.7 1-0.7 1-0.7 1-0.7 1-0.8 1-0.8 1-0.8 1-0.8 0.9-0.8 0.9-0.8 0.9-0.8 0.9-0.8 0.9-0.8 0.9-0.9 0.9-0.9 0.9-0.9 0.9-0.9 0.8-0.9 0.8-0.9 0.8-0.9 0.8-0.9 0.8-0.9 0.8-1 0.8-1 0.8-1 0.7-1 0.7-1 0.7-1 0.7-1 0.7-1 0.7-1 0.7-1 0.6-1 0.6-1.1 0.6-1.1 0.6-1.1 0.6-1.1 0.6-1.1 0.6-1.1 0.6-1.1 0.5-1.1 0.5-1.1 0.5-1.1 0.5-1.1 0.5-1.1 0.5-1.1 0.4-1.2 0.4-1.2 0.4-1.2 0.4-1.2 0.4-1.2 0.4-1.2 0.4-1.2 0.3-1.2 0.3-1.2 0.3-1.2 0.3-1.2 0.3-1.2 0.3-1.2 0.2-1.2 0.2-1.2 0.2-1.2 0.2-1.2 0.2-1.3 0.2-1.3 0.1-1.3 0.1-1.3 0.1-1.3 0.1-1.3 0.1-1.3 0.1-1.3V281l-0.4-1.9-0.9-1.6-1.3-1.3-1.7-0.8-1.9-0.3-1.9 0.4-1.6 0.9-1.3 1.3-0.8 1.7-0.3 1.9v5.6l-0.1 1.1-0.1 1.1-0.1 1.1-0.1 1.1-0.1 1.1-0.1 1.1-0.1 1.1-0.2 1.1-0.2 1.1-0.2 1.1-0.2 1.1-0.2 1.1-0.2 1.1-0.2 1.1-0.3 1.1-0.3 1.1-0.3 1.1-0.3 1-0.3 1-0.3 1-0.3 1-0.4 1-0.4 1-0.4 1-0.4 1-0.4 1-0.4 1-0.4 1-0.4 1-0.5 1-0.5 1-0.5 1-0.5 1-0.5 0.9-0.5 0.9-0.5 0.9-0.5 0.9-0.6 0.9-0.6 0.9-0.6 0.9-0.6 0.9-0.6 0.9-0.6 0.9-0.6 0.9-0.6 0.9-0.6 0.9-0.7 0.8-0.7 0.8-0.7 0.8-0.7 0.8-0.7 0.8-0.7 0.8-0.7 0.8-0.7 0.8-0.7 0.8-0.8 0.8-0.8 0.8-0.8 0.7-0.8 0.7-0.8 0.7-0.8 0.7-0.8 0.7-0.8 0.7-0.8 0.7-0.8 0.7-0.9 0.7-0.9 0.7-0.9 0.6-0.9 0.6-0.9 0.6-0.9 0.6-0.9 0.6-0.9 0.6-0.9 0.6-0.9 0.6-0.9 0.6-0.9 0.5-1 0.5-1 0.5-1 0.5-1 0.5-1 0.5-1 0.5-1 0.5-1 0.4-1 0.4-1 0.4-1 0.4-1 0.4-1.1 0.4-1.1 0.4-1.1 0.3-1.1 0.3-1.1 0.3-1 0.5z" fill="#5EC8FA" p-id="1580"></path><path d="M626.6 220.8c1.6-12.9 8.2-24 17.7-31.4l2.2-1.6v-1.1c0-0.6 0.1-1.2 0.1-1.7 1.1-9.4 9.6-16 19-14.9 5.9 0.7 10.7 4.3 13.2 9.2l0.2 0.4h0.1c8.1 1 15.4 3.9 21.6 8.3l2.9 2.3 0.5-0.3c1.3-0.7 2.8-1 4.4-0.8 4.2 0.5 7.2 4.3 6.7 8.5-0.1 1.1-0.5 2-1 2.9l-0.8 1.1 1.9 3.3c0.5 1 1 2 1.4 3.1l1.2 3.1 1.7 0.8c5.8 3.3 9.3 9.8 8.5 16.9-0.7 5.9-4.3 10.7-9.2 13.2l-1.2 0.5-1.3 3.4c-8.2 18.3-27.7 30-48.7 27.5-1.6-0.2-3.2-0.5-4.8-0.8l-2.7-0.8-1.2 1.1c-3.4 2.7-7.8 4-12.5 3.5-9.3-1.1-15.9-9.5-14.8-18.8 0.2-1.7 0.7-3.4 1.4-4.9l0.4-0.8-2.2-3.8c-4-8.3-5.8-17.7-4.7-27.4z" fill="#9EDEFC" p-id="1581"></path><path d="M647.1 271.5c-6.1-0.7-10.5-6.3-9.8-12.5 0.7-6.2 6.3-10.5 12.5-9.8 6.2 0.7 10.5 6.3 9.8 12.5-0.8 6.2-6.4 10.6-12.5 9.8zM708.1 238.9c-7.1-0.9-12.2-7.3-11.3-14.4 0.9-7.1 7.3-12.2 14.4-11.3 7.1 0.9 12.2 7.3 11.3 14.4-0.9 7.1-7.3 12.2-14.4 11.3zM662.4 201.2c-7.7-0.9-13.2-7.9-12.2-15.6 0.9-7.7 7.9-13.2 15.6-12.2 7.7 0.9 13.2 7.9 12.2 15.6-0.9 7.6-7.9 13.1-15.6 12.2zM692.9 208c-2.5-0.3-4.3-2.6-4-5 0.3-2.5 2.6-4.3 5-4 2.5 0.3 4.3 2.6 4 5-0.3 2.5-2.5 4.3-5 4zM677.6 239.6c-1.8-0.2-3.2-1.9-2.9-3.7 0.2-1.8 1.9-3.2 3.7-2.9 1.8 0.2 3.2 1.9 2.9 3.7-0.2 1.8-1.8 3.1-3.7 2.9zM672.6 233.1c-1.8-0.2-3.2-1.9-2.9-3.7 0.2-1.8 1.9-3.2 3.7-2.9 1.8 0.2 3.2 1.9 2.9 3.7-0.1 1.8-1.8 3.1-3.7 2.9zM694.6 250.7c-1.4-0.2-2.3-1.4-2.2-2.8 0.2-1.4 1.4-2.3 2.8-2.2 1.4 0.2 2.3 1.4 2.2 2.8-0.2 1.4-1.4 2.3-2.8 2.2zM626.4 220.8c0.6-4.8 1.9-9.4 3.8-13.7l2-4 1.2 0.2c9 2 15.2 10.6 14.1 20-1.1 9.4-9.2 16.3-18.5 16.1l-1.2-0.1-0.3-1c-1.3-5.5-1.8-11.5-1.1-17.5z" fill="#5EC8FA" p-id="1582"></path><path d="M643.4 228.1l0.1-0.2 0.1-0.2 0.1-0.1 0.2-0.1 0.2-0.1 0.2-0.1H644.9l0.2 0.1 0.2 0.1 0.2 0.1 0.1 0.1 0.1 0.1 0.1 0.2 0.1 0.2V228.8l-0.1 0.2-0.1 0.2-0.1 0.2-0.1 0.2-0.1 0.2-0.1 0.2-0.1 0.2-0.1 0.2-0.1 0.2-0.1 0.2-0.1 0.2-0.1 0.2-0.1 0.2-0.1 0.2-0.1 0.2-0.1 0.2-0.1 0.2-0.1 0.2-0.1 0.2-0.1 0.2-0.2 0.2-0.2 0.2-0.2 0.2-0.2 0.2-0.2 0.2-0.2 0.2-0.2 0.2-0.2 0.2-0.2 0.2-0.2 0.2-0.2 0.2-0.2 0.2-0.2 0.2-0.2 0.2-0.2 0.2-0.2 0.2-0.2 0.2-0.2 0.2-0.2 0.2-0.2 0.2-0.2 0.1-0.2 0.1-0.2 0.1-0.2 0.1-0.2 0.1-0.2 0.1-0.2 0.1-0.2 0.1-0.2 0.1-0.2 0.1-0.2 0.1-0.2 0.1-0.2 0.1-0.2 0.1-0.2 0.1-0.2 0.1-0.2 0.1-0.5 0.5-0.2 0.1-0.2 0.1-0.2 0.1-0.2 0.1-0.2 0.1-0.2 0.1-0.2 0.1-0.2 0.1-0.2 0.1-0.2 0.1-0.2 0.1-0.2 0.1-0.6-0.2-0.2 0.1-0.2 0.1-0.2 0.1-0.2 0.1H626l-0.5-0.1-0.4-0.1-0.3-0.2-0.2-0.3-0.1-0.4v-0.4l0.1-0.4 0.2-0.3 0.3-0.2 0.3-0.1h0.4l0.5 0.1H631.5l0.2-0.1 0.2-0.1 0.2-0.1 0.2-0.1 0.2-0.1 0.2-0.1 0.2-0.1 0.2-0.1 0.2-0.1 0.2-0.1 0.2-0.1 0.2-0.1 0.2-0.1 0.2-0.1 0.2-0.1 0.2-0.1 0.2-0.1 0.2-0.1 0.2-0.1 0.2-0.1 0.2-0.1 0.2-0.1 0.2-0.1 0.2-0.1 0.2-0.1 0.2-0.1 0.2-0.1 0.2-0.1 0.2-0.1 0.2-0.1 0.2-0.1 0.2-0.1 0.2-0.1 0.2-0.1 0.2-0.1 0.2-0.1 0.2-0.1 0.2-0.1 0.2-0.1 0.2-0.1 0.2-0.1 0.2-0.1 0.2-0.2 0.1-0.2 0.1-0.2 0.1-0.2 0.1-0.2 0.1-0.2 0.1-0.2 0.1-0.2 0.1-0.2 0.1-0.2 0.1-0.2 0.1-0.2 0.1-0.2 0.1-0.2 0.1-0.2 0.1-0.2 0.1-0.2 0.1-0.2 0.1-0.2 0.1-0.2 0.1-0.2 0.1-0.2 0.1-0.2 0.1-0.2 0.1-0.2 0.1-0.2 0.1-0.2 0.1-0.2 0.1-0.2 0.5 0.1zM644.6 218v0.2l0.1 0.2 0.1 0.2 0.1 0.1 0.1 0.1 0.2 0.1 0.2 0.1h0.8l0.2-0.1 0.2-0.1 0.1-0.1 0.1-0.1 0.1-0.2 0.1-0.2V216.4l-0.1-0.2-0.1-0.2-0.1-0.2-0.1-0.2-0.1-0.2-0.1-0.2-0.1-0.2-0.1-0.2-0.1-0.2-0.1-0.2-0.1-0.2-0.1-0.2-0.1-0.2-0.1-0.2-0.1-0.2-0.1-0.2-0.1-0.2-0.1-0.2-0.1-0.2-0.1-0.2-0.1-0.2-0.1-0.2-0.1-0.2-0.1-0.2-0.1-0.2-0.1-0.2-0.1-0.2-0.1-0.2-0.2-0.8-0.1-0.2-0.1-0.2-0.1-0.2-0.1-0.2-0.1-0.2-0.2-0.2-0.2-0.2-0.2-0.2-0.2-0.2-0.2-0.2-0.2-0.2-0.2-0.2-0.2-0.2-0.2-0.2-0.2-0.2-0.2-0.2-0.2-0.2-0.2-0.2-0.2-0.2-0.2-0.2-0.2-0.2-0.2-0.2-0.2-0.2-0.2-0.2-0.2-0.2-0.2-0.1-0.2-0.1-0.2-0.1-0.2-0.1-0.2-0.1-0.2-0.1-0.2-0.1-0.2-0.1-0.2-0.1-0.2-0.1-0.2-0.1-0.2-0.1-0.2-0.1-0.2-0.1-0.2-0.1-0.2-0.1-0.2-0.1-0.2-0.1-0.2-0.1-0.2-0.1-0.2-0.1-0.2-0.1-0.2-0.1-0.2-0.1-0.2-0.1-0.2-0.1-0.2-0.1-0.2-0.1-0.2-0.1-0.2-0.1-0.2-0.1-0.2-0.1-0.2-0.1-0.2-0.1h-1.6l-0.5-0.1h-0.4l-0.3 0.1-0.3 0.2-0.2 0.3-0.1 0.4v0.4l0.1 0.3 0.2 0.3 0.3 0.2 0.4 0.1 0.5 0.1H632.4l0.2 0.1 0.2 0.1 0.2 0.1 0.2 0.1 0.2 0.1 0.2 0.1 0.2 0.1 0.2 0.1 0.2 0.1 0.2 0.1 0.2 0.1 0.2 0.1 0.2 0.1 0.2 0.1 0.2 0.1 0.2 0.1 0.2 0.1 0.2 0.1 0.2 0.1 0.2 0.1 0.2 0.1 0.2 0.1 0.2 0.1 0.2 0.1 0.2 0.1 0.2 0.1 0.2 0.1 0.2 0.1 0.2 0.1 0.2 0.1 0.2 0.1 0.2 0.1 0.2 0.1 0.2 0.1 0.2 0.1 0.2 0.1 0.2 0.1 0.2 0.1 0.2 0.1 0.2 0.1 0.2 0.1 0.2 0.1 0.1 0.2 0.1 0.2 0.1 0.2 0.1 0.2 0.1 0.2 0.1 0.2 0.1 0.2 0.1 0.2 0.1 0.2 0.1 0.2 0.1 0.2 0.1 0.2 0.1 0.2 0.1 0.2 0.1 0.2 0.1 0.2 0.1 0.2 0.1 0.2 0.1 0.2 0.1 0.2 0.1 0.2 0.1 0.2 0.1 0.2 0.1 0.2 0.1 0.2 0.1 0.2 0.1 0.2 0.1 0.2 0.1 0.2 0.1 0.2 0.1 0.2 0.1 0.2 0.1 0.2 0.1 0.2 0.1 0.2 0.1 0.2 0.1 0.2 0.1 0.2 0.1 0.2 0.1 0.2 0.1 0.2 0.1 0.2v1l-0.4 0.5z" fill="#5EC8FA" p-id="1583"></path></svg>